<svg width="600" height="723" viewBox="0 0 600 723" fill="none" xmlns="http://www.w3.org/2000/svg">
<path d="M251.769 283.544C251.429 283.544 251.085 283.436 250.792 283.21C250.525 283 244.197 278.001 239.364 267.804C234.931 258.453 230.996 242.776 237.404 221.163C241.75 206.501 246.106 196.078 249.946 186.876C256.92 170.182 261.96 158.12 262.367 132.548C262.38 131.673 263.026 130.922 263.981 130.983C264.862 130.999 265.562 131.718 265.549 132.599C265.132 158.782 259.727 171.722 252.883 188.105C249.071 197.23 244.753 207.57 240.455 222.07C228.768 261.472 252.507 280.512 252.749 280.696C253.44 281.237 253.564 282.236 253.026 282.93C252.711 283.334 252.243 283.544 251.769 283.544Z" fill="#000C3E"/>
<path d="M382.137 32.2773C381.898 49.6114 367.654 63.4742 350.316 63.2356C332.982 62.997 319.123 48.7524 319.358 31.4151C319.597 14.081 333.844 0.221378 351.179 0.456826C368.513 0.695454 382.375 14.9433 382.137 32.2773Z" fill="#000C3E"/>
<path d="M248.732 272.331C248.732 272.331 258.388 291.1 296.146 296.887C333.9 302.672 363.086 288.367 392.361 298.205C421.636 308.046 463.244 293.333 471.265 280.941C479.289 268.548 474.339 133.524 450.915 111.421C427.491 89.3174 307.129 73.2624 281.771 100.38C256.412 127.501 231.887 257.51 248.732 272.331Z" fill="#000C3E"/>
<path d="M463.276 160.622C462.493 217.75 415.546 263.427 358.415 262.644C301.287 261.862 255.61 214.912 256.393 157.784C257.179 100.656 304.125 54.979 361.253 55.7617C418.381 56.5476 464.058 103.494 463.276 160.622Z" fill="#000C3E"/>
<path d="M275.303 157.329C275.303 157.329 282.535 282.762 367.538 286.166C452.538 289.571 448.253 112.702 417.139 96.6051C386.024 80.5119 257.925 86.7131 275.303 157.329Z" fill="#FFCEB0"/>
<path d="M363.082 182.133C363.082 182.133 380.209 220.387 376.098 223.047C371.987 225.704 359.769 225.538 356.413 222.776C353.056 220.015 356.349 177.968 363.082 182.133Z" fill="#F5A473"/>
<path d="M337.971 195.668C337.859 200.072 334.2 203.552 329.797 203.441C325.393 203.333 321.913 199.674 322.024 195.27C322.132 190.867 325.791 187.386 330.198 187.494C334.601 187.606 338.082 191.265 337.971 195.668Z" fill="#41294A"/>
<path d="M406.348 190.287C406.236 194.69 402.577 198.171 398.174 198.06C393.77 197.952 390.29 194.293 390.401 189.889C390.509 185.486 394.168 182.005 398.575 182.113C402.978 182.224 406.459 185.883 406.348 190.287Z" fill="#41294A"/>
<path d="M340.539 88.7956C340.539 88.7956 310.456 104.237 305.324 132C300.188 159.764 304.862 230.434 272.542 227.955C272.542 227.955 206.789 89.4383 340.539 88.7956Z" fill="#41294A"/>
<path d="M356.593 89.0156C353.879 91.0583 388.016 90.1642 408.096 113.362C428.179 136.56 434.218 195.585 437.263 196.609C440.308 197.637 450.595 122.977 428.666 101.141C406.738 79.3081 372.038 77.3927 356.593 89.0156Z" fill="#41294A"/>
<path d="M430.062 201.826C430.062 201.826 437.44 170.206 451.879 181.055C466.318 191.905 454.275 225.049 440.336 228.361C426.4 231.673 422.709 218.208 430.062 201.826Z" fill="#FFCEB0"/>
<path d="M296.083 199.988C296.083 199.988 289.574 168.177 274.842 178.626C260.114 189.075 271.244 222.541 285.084 226.235C298.928 229.925 302.985 216.568 296.083 199.988Z" fill="#FFCEB0"/>
<path d="M394.521 162.152C394.521 162.152 409.532 154.233 418.782 165.611C426.917 175.614 408.349 167.507 401.514 168.802C394.677 170.1 385.647 169.534 394.521 162.152Z" fill="#41294A"/>
<path d="M334.864 165.035C334.864 165.035 319.468 157.892 310.81 169.725C303.196 180.132 321.326 171.087 328.221 172.035C335.112 172.98 344.104 171.952 334.864 165.035Z" fill="#41294A"/>
<path d="M389.07 246.422C389.07 246.422 379.276 231.624 368.681 232.556C358.083 233.491 349.96 247.131 348.534 247.704C348.534 247.704 365.073 255.471 389.07 246.422Z" fill="#41294A"/>
<path d="M329.51 177.909C316.252 177.909 305.316 188.702 305.131 201.963C305.046 208.473 307.495 214.633 312.039 219.304C316.582 223.971 322.669 226.59 329.182 226.679L329.523 226.682C342.781 226.682 353.716 215.893 353.898 202.631C354.082 189.189 343.296 178.1 329.85 177.912L329.51 177.909ZM329.523 229.864L329.138 229.861C321.775 229.762 314.893 226.797 309.758 221.521C304.622 216.243 301.851 209.281 301.95 201.919C302.157 186.926 314.521 174.728 329.51 174.728L329.895 174.731C345.094 174.941 357.286 187.477 357.08 202.673C356.876 217.665 344.512 229.864 329.523 229.864Z" fill="#FFFCF6"/>
<path d="M398.375 172.398C385.114 172.398 374.178 183.19 373.997 196.451C373.812 209.891 384.602 220.983 398.044 221.167L398.385 221.17C411.646 221.17 422.582 210.381 422.763 197.12C422.852 190.607 420.399 184.447 415.859 179.776C411.316 175.112 405.229 172.49 398.716 172.401L398.375 172.398ZM398.385 224.352L398.003 224.349C382.801 224.139 370.608 211.603 370.815 196.407C371.022 181.415 383.383 169.216 398.375 169.216L398.76 169.219C406.123 169.318 413.005 172.283 418.137 177.558C423.276 182.837 426.047 189.798 425.945 197.161C425.738 212.153 413.374 224.352 398.385 224.352Z" fill="#FFFCF6"/>
<path d="M304.224 197.969C304.043 197.969 303.855 197.937 303.677 197.873L293.473 194.125C292.649 193.82 292.226 192.907 292.528 192.079C292.83 191.259 293.75 190.842 294.571 191.138L304.771 194.883C305.598 195.188 306.018 196.101 305.716 196.928C305.481 197.571 304.873 197.969 304.224 197.969Z" fill="#FFFCF6"/>
<path d="M423.211 190.738C422.533 190.738 421.903 190.303 421.693 189.622C421.429 188.785 421.897 187.891 422.737 187.627L436.682 183.274C437.516 183.007 438.413 183.481 438.674 184.318C438.938 185.158 438.47 186.049 437.63 186.313L423.685 190.668C423.529 190.716 423.367 190.738 423.211 190.738Z" fill="#FFFCF6"/>
<path d="M356.096 118.184C356.096 118.184 356.125 149.915 375.028 155.646C393.927 161.379 442.547 158.85 442.054 151.096C437.603 81.0879 404.694 84.6101 377.21 75.6504C329.01 59.9421 289.589 138.642 295.491 157.243C301.393 175.84 342.074 158.474 350.783 155.859C359.488 153.24 354.665 131.678 356.096 118.184Z" fill="#000C3E"/>
<g opacity="0.210007">
<g opacity="0.210007">
<path opacity="0.210007" d="M307.352 225.354C307.352 225.354 350.232 200.612 369.052 204.071C387.872 207.533 420.902 208.074 422.397 214.825C423.896 221.574 380.523 218.532 367.182 219.83C353.841 221.128 302.624 236.486 307.352 225.354Z" fill="#DB5C5D"/>
</g>
</g>
<path d="M331.35 208.798C330.723 208.798 330.128 208.425 329.877 207.805C329.546 206.994 329.937 206.065 330.752 205.734C335.063 203.977 335.862 202.593 335.868 202.581C336.151 201.747 337.023 201.359 337.863 201.655C338.693 201.938 339.11 202.905 338.827 203.739C338.627 204.324 337.542 206.405 331.948 208.68C331.751 208.759 331.55 208.798 331.35 208.798Z" fill="#DB5C5D"/>
<path d="M396.861 205.43C395.579 205.43 393.415 205.041 390.017 203.384C389.225 203.002 388.897 202.051 389.282 201.258C389.664 200.469 390.622 200.145 391.408 200.527C395.598 202.566 397.157 202.226 397.176 202.226C397.988 201.885 398.853 202.283 399.197 203.091C399.54 203.899 399.101 204.854 398.29 205.201C398.08 205.29 397.628 205.43 396.861 205.43Z" fill="#DB5C5D"/>
<path d="M355.465 202.783C354.66 202.783 353.967 202.175 353.884 201.354C353.795 200.479 354.431 199.696 355.306 199.61L372.379 197.867C373.235 197.759 374.034 198.411 374.123 199.286C374.212 200.161 373.576 200.944 372.701 201.029L355.627 202.773C355.573 202.779 355.519 202.783 355.465 202.783Z" fill="#FFFCF6"/>
<path d="M331.825 62.8074C331.592 62.8074 331.354 62.7565 331.131 62.6451C322.104 58.2575 316.645 51.999 314.895 44.0415C311.013 26.3733 326.798 6.82478 327.472 6.00071C328.032 5.31982 329.031 5.22118 329.709 5.77799C330.39 6.33479 330.492 7.33385 329.935 8.01474C329.779 8.20565 314.449 27.2101 318.003 43.367C319.534 50.3223 324.418 55.8457 332.521 59.7879C333.311 60.1697 333.641 61.1242 333.256 61.9133C332.983 62.4765 332.416 62.8074 331.825 62.8074Z" fill="#000C3E"/>
<path d="M368.154 67.5359C367.712 67.5359 367.273 67.3513 366.958 66.995C366.379 66.3332 366.443 65.3309 367.104 64.7487C367.289 64.5864 385.533 48.3628 384.68 31.84C384.314 24.7288 380.404 18.4767 373.057 13.2555C372.341 12.7496 372.173 11.7569 372.682 11.0378C373.191 10.3251 374.184 10.1565 374.9 10.6656C383.08 16.4754 387.442 23.5484 387.859 31.6873C388.781 49.75 370.003 66.4382 369.201 67.1414C368.899 67.4054 368.527 67.5359 368.154 67.5359Z" fill="#000C3E"/>
<path d="M462.785 276.423C462.323 276.423 461.865 276.225 461.55 275.834C460.996 275.156 461.098 274.154 461.779 273.597C461.989 273.425 482.915 255.948 476.854 228.299C474.519 217.64 470.424 205.912 466.087 193.497C458.569 171.966 450.793 149.701 450.159 128.116C450.134 127.234 450.828 126.506 451.706 126.477C452.53 126.506 453.316 127.142 453.341 128.02C453.962 149.115 461.652 171.145 469.091 192.447C473.459 204.958 477.586 216.772 479.963 227.615C486.45 257.221 464.016 275.882 463.787 276.066C463.491 276.305 463.138 276.423 462.785 276.423Z" fill="#000C3E"/>
<path d="M468.435 162.793C468.384 162.793 468.33 162.79 468.276 162.787C467.404 162.701 466.765 161.921 466.851 161.046C469.6 133.209 463.742 110.616 449.447 93.8832C426.427 66.9498 389.029 64.4776 388.657 64.4553C387.778 64.4044 387.107 63.6535 387.161 62.7722C387.209 61.8972 387.963 61.2036 388.838 61.2799C389.229 61.3022 427.976 63.8603 451.865 91.815C466.746 109.232 472.855 132.63 470.017 161.358C469.937 162.182 469.243 162.793 468.435 162.793Z" fill="#000C3E"/>
<path d="M354.491 249.563C354.491 249.563 370.346 238.439 384.505 247.975C384.505 247.975 367.972 254.17 354.491 249.563Z" fill="#DB5C5D"/>
<path d="M364.982 260.982C363.416 260.982 362.071 260.967 361.24 260.954C360.362 260.941 359.662 260.219 359.675 259.338C359.687 258.459 360.289 257.747 361.291 257.772C367.298 257.852 374.476 257.705 375.593 257.282C376.411 256.97 377.333 257.378 377.648 258.195C377.963 259.016 377.562 259.929 376.745 260.248C375.154 260.865 369.249 260.982 364.982 260.982Z" fill="#DB5C5D"/>
<path d="M287.817 217.445C287.674 217.445 287.531 217.426 287.388 217.385C286.542 217.149 286.048 216.274 286.284 215.425C290.636 199.825 279.08 189.78 278.963 189.678C278.295 189.112 278.212 188.106 278.781 187.435C279.348 186.767 280.353 186.684 281.024 187.257C281.565 187.715 294.245 198.74 289.348 216.284C289.151 216.984 288.514 217.445 287.817 217.445Z" fill="#DB5C5D"/>
<path d="M436.257 221.245C436.222 221.245 436.19 221.245 436.152 221.242C435.277 221.184 434.612 220.427 434.666 219.552C435.856 201.089 444.705 191.219 445.083 190.808C445.675 190.159 446.681 190.115 447.327 190.707C447.976 191.298 448.02 192.304 447.432 192.953C447.346 193.048 438.955 202.476 437.845 219.756C437.788 220.599 437.088 221.245 436.257 221.245Z" fill="#DB5C5D"/>
<path d="M404.31 273.183C404.31 273.183 409.369 329.776 402.655 338.726C395.942 347.68 353.421 340.963 342.231 338.726C331.041 336.49 331.018 242.89 333.277 249.212C351.961 301.427 403.021 255.219 404.31 273.183Z" fill="#FFCEB0"/>
<path d="M337.324 278.781C337.324 278.781 367.49 293.28 401.782 275.729C401.782 275.729 404.449 296.812 401.782 301.673C399.119 306.535 344.797 310.009 334.104 286.048C334.104 286.048 334.237 277.74 337.324 278.781Z" fill="#F5A473"/>
<path d="M172.586 722.118H562.96C562.96 722.118 582.899 382.716 533.999 345.808C485.096 308.897 269.823 327.335 219.141 358.863C168.46 390.391 172.586 722.118 172.586 722.118Z" fill="#FB4C47"/>
<path d="M367.49 332.019C367.49 332.019 352.444 462.483 359.011 480.641C365.575 498.8 357.166 579.307 354.493 589.772C351.817 600.236 270.711 604.681 249.782 596.31C228.853 587.939 255.115 362.287 266.83 320.54C278.548 278.789 366.202 303.387 367.49 332.019Z" fill="#05BA6E"/>
<path d="M129.307 172.174C129.307 172.174 161.935 234.667 184.802 235.246C207.673 235.825 284.791 141.91 313.227 140.942C341.665 139.978 366.085 142.737 366.196 135.96C366.307 129.179 326.644 121.779 326.644 121.779C326.644 121.779 384.004 125.431 372.14 119.157C360.278 112.883 331.852 107.241 331.852 107.241C331.852 107.241 373.078 108.905 373.377 104.496C373.676 100.086 330.456 93.5917 330.456 93.5917C330.456 93.5917 383.05 91.9117 373.431 84.6765C363.81 77.4412 345.703 80.5816 296.726 88.0618C247.747 95.5421 136.939 160.93 129.307 172.174Z" fill="#FFCEB0"/>
<path d="M186.551 169.18C186.551 169.18 238.748 200.272 216.02 235.507C191.82 273.026 193.176 261.88 188.992 277.06C184.804 292.24 253.778 321.805 256.915 334.799C260.052 347.79 227.538 507.574 197.083 501.016C170.573 495.311 23.2519 411.708 2.08069 328.162C-14.3307 263.392 119.439 104.963 186.551 169.18Z" fill="#FB4C47"/>
<path d="M323.183 533.64C323.183 533.64 265.348 661.043 286.612 678.104C307.875 695.161 325.009 684.047 343.813 695.12C362.62 706.192 380.661 700.656 395.768 691.022C410.874 681.384 371.558 554.633 355.296 542.565C339.034 530.493 326.113 527.019 323.183 533.64Z" fill="white"/>
<path d="M515.339 336.742C515.339 336.742 546.437 340.538 570.847 385.242C589.161 418.782 624.642 614.771 570.847 642.696C517.053 670.619 466.598 656.013 447.073 637.195C427.546 618.377 462.288 521.396 485.445 514.157C508.606 506.921 515.339 336.742 515.339 336.742Z" fill="#FB4C47"/>
<path d="M525.408 333.738C525.408 333.738 526.862 324.676 482.079 305.296C446.342 289.83 415.731 315.933 361.218 318.742C306.705 321.555 311.624 299.948 273.065 309.99C213.56 325.481 260.936 364.486 280.109 368.864C299.282 373.242 363.518 481.227 525.408 333.738Z" fill="#05BA6E"/>
<path d="M369.117 224.842C369.117 224.842 368.952 228.533 371.071 228.867C373.19 229.201 377.106 228.018 376.098 223.045C376.098 223.045 370.784 224.753 369.117 224.842Z" fill="white"/>
<path d="M589.852 530.56C589.702 530.56 589.549 530.551 589.397 530.528C587.927 530.318 586.839 529.135 586.683 527.725C584.032 524.661 566.237 518.244 554.366 513.961C530.846 505.475 520.299 501.279 518.03 496.688C516.105 492.796 516.968 487.184 518.059 480.079C519.787 468.835 521.941 454.835 514.801 441.351C502.472 418.064 503.646 383.523 503.703 382.066C503.773 380.309 505.291 378.903 507.002 379.008C508.759 379.075 510.127 380.554 510.063 382.307C510.047 382.651 508.902 416.613 520.426 438.373C528.549 453.721 526.121 469.512 524.349 481.043C523.5 486.563 522.701 491.778 523.735 493.869C525.663 496.843 544.235 503.544 556.523 507.976C584.217 517.967 593.832 521.986 592.995 527.83C592.769 529.418 591.407 530.56 589.852 530.56Z" fill="#B31B1F"/>
<path d="M506.838 504.401C506.561 504.401 506.281 504.366 505.998 504.289C495.485 501.422 479.153 498.438 478.991 498.406C477.26 498.094 476.115 496.437 476.43 494.709C476.745 492.978 478.396 491.814 480.13 492.148C480.808 492.269 496.892 495.209 507.671 498.148C509.367 498.613 510.366 500.36 509.905 502.056C509.52 503.471 508.238 504.401 506.838 504.401Z" fill="#B31B1F"/>
<path d="M563.991 661.782C563.94 661.782 563.892 661.782 563.844 661.778C504.951 659.109 446.273 634.021 443.101 610.158C442.105 602.659 441.386 598.907 440.94 597.052C439.75 596.461 439.028 595.194 439.241 593.81C439.645 591.188 441.421 590.259 442.83 590.259H442.865C446.069 590.294 447.132 592.172 449.41 609.321C451.873 627.845 505.294 652.755 564.131 655.421C565.887 655.501 567.246 656.987 567.166 658.743C567.09 660.452 565.68 661.782 563.991 661.782Z" fill="#B31B1F"/>
<path d="M458.414 605.468C458.182 605.468 457.947 605.442 457.708 605.391C455.996 605.003 454.921 603.298 455.309 601.583C455.446 600.969 469.363 539.625 482.37 495.497C482.866 493.811 484.648 492.844 486.321 493.347C488.008 493.843 488.972 495.612 488.472 497.298C475.523 541.229 461.653 602.375 461.517 602.989C461.179 604.465 459.869 605.468 458.414 605.468Z" fill="#B31B1F"/>
<path d="M182.338 472.236C182.182 472.236 182.02 472.224 181.861 472.201C180.123 471.94 178.927 470.318 179.188 468.584C179.516 466.388 187.371 414.542 198.151 390.281C208.632 366.705 213.996 342.8 214.05 342.562C214.426 340.847 216.122 339.774 217.846 340.144C219.561 340.525 220.643 342.228 220.261 343.942C220.041 344.942 214.702 368.709 203.967 392.868C193.538 416.34 185.558 468.997 185.478 469.526C185.243 471.107 183.884 472.236 182.338 472.236Z" fill="#B31B1F"/>
<path d="M133.835 291.219C125.365 291.219 115.874 290.704 105.425 289.374C103.681 289.151 102.447 287.56 102.67 285.816C102.889 284.073 104.521 282.861 106.227 283.061C138.044 287.115 160.647 283.382 172.299 280.84C166.495 278.985 158.366 277.178 150.252 277.62C131.996 278.479 105.282 262.17 104.152 261.47C102.657 260.547 102.196 258.587 103.118 257.092C104.041 255.596 106.004 255.129 107.496 256.058C107.757 256.217 133.688 272.059 149.925 271.263C165.391 270.449 183.708 277.337 185.372 280.293C185.967 281.346 185.92 282.714 185.242 283.717C184.612 284.642 183.308 285.199 182.162 285.129C181.659 285.186 180.17 285.543 178.723 285.886C171.764 287.554 156.428 291.216 133.835 291.219Z" fill="#B31B1F"/>
<path d="M212.046 222.836C210.862 222.836 209.726 222.174 209.179 221.041C209.099 220.879 201.155 204.741 187.626 198.346C172.268 191.082 154.899 165.765 154.167 164.693C153.177 163.239 153.553 161.257 155.004 160.27C156.461 159.284 158.437 159.662 159.423 161.107C159.595 161.355 176.55 186.065 190.349 192.59C205.94 199.969 214.55 217.529 214.909 218.27C215.673 219.855 215.008 221.751 213.427 222.514C212.981 222.734 212.51 222.836 212.046 222.836Z" fill="#B31B1F"/>
<path d="M359.835 407.743C359.717 407.743 359.596 407.73 359.478 407.701C358.622 407.507 358.085 406.652 358.282 405.799C358.358 405.462 365.947 372.289 368.168 355.438C371.626 329.167 359.86 320.003 359.742 319.914C359.039 319.386 358.893 318.393 359.415 317.69C359.936 316.984 360.923 316.834 361.629 317.353C362.179 317.757 375.046 327.56 371.321 355.852C369.084 372.855 361.46 406.174 361.384 406.505C361.215 407.247 360.56 407.743 359.835 407.743Z" fill="#08824F"/>
<path d="M266 359.899L262.841 359.533C262.841 359.533 265.31 338.053 266.598 327.493C267.9 316.84 270.938 309.567 271.069 309.262C271.409 308.447 272.345 308.078 273.153 308.412C273.961 308.756 274.339 309.691 273.999 310.499C273.967 310.569 270.999 317.696 269.758 327.881C268.469 338.432 266 359.896 266 359.899Z" fill="#08824F"/>
<path d="M356.345 712.628C338.2 712.628 328.222 712.029 314.413 711.202C296.65 710.136 272.325 708.679 215.481 707.794C213.724 707.769 212.321 706.325 212.35 704.565C212.378 702.809 213.925 701.345 215.579 701.431C272.564 702.316 296.971 703.782 314.792 704.851C328.493 705.669 338.388 706.264 356.345 706.264C378.824 706.264 398.99 703.801 418.494 701.421C435.615 699.328 451.785 697.355 469.116 696.97C506.084 696.156 533.711 696.967 533.985 696.97C535.741 697.028 537.122 698.494 537.068 700.247C537.014 702.004 535.531 703.305 533.794 703.334C533.52 703.324 506.049 702.51 469.259 703.334C452.243 703.709 436.223 705.666 419.264 707.737C399.573 710.143 379.213 712.628 356.345 712.628Z" fill="#B31B1F"/>
<path d="M500.481 670.174C498.899 670.174 497.315 669.465 495.934 667.378C491.636 660.884 490.337 660.349 482.027 661.628C474.508 662.802 471.54 657.473 469.573 653.951C468.918 652.773 468.294 651.663 467.75 651.233C466.287 650.078 462.631 651.466 461.085 652.318L459.541 649.538C460.216 649.162 466.21 645.964 469.723 648.736C470.763 649.56 471.498 650.877 472.351 652.398C474.251 655.793 476.217 659.29 481.54 658.485C491.053 657.015 493.595 658.087 498.588 665.621C499.911 667.626 501.057 667.352 504.585 665.294C507.264 663.722 511.327 661.351 514.356 665.583L511.773 667.435C510.592 665.796 509.523 666.092 506.189 668.039C504.595 668.972 502.539 670.174 500.481 670.174Z" fill="white"/>
<path d="M463.462 520.326C463.462 520.326 387.463 492.846 354.49 506.903C321.518 520.956 294.346 557.19 299.38 559.586C304.413 561.985 331.35 541.094 331.35 541.094C331.35 541.094 303.882 568.851 308.976 571.629C314.07 574.406 340.538 559.586 340.538 559.586C340.538 559.586 322.062 579.338 329.997 580.849C337.933 582.361 354.945 566.086 372.687 565.475C390.431 564.861 412.792 578.883 434.975 582.832C457.155 586.777 463.462 520.326 463.462 520.326Z" fill="#FFCEB0"/>
<path d="M578.155 506.082C577.958 506.082 577.761 506.063 577.56 506.024C577.338 505.986 554.957 501.755 528.202 496.314C526.481 495.964 525.367 494.284 525.717 492.563C526.064 490.841 527.741 489.728 529.469 490.081C556.179 495.509 578.521 499.731 578.744 499.776C580.472 500.1 581.604 501.764 581.277 503.492C580.99 505.019 579.654 506.082 578.155 506.082Z" fill="#B31B1F"/>
<path fill-rule="evenodd" clip-rule="evenodd" d="M365.748 6.0113C364.916 6.0113 364.013 6.10788 363.035 6.30106C360.649 6.7798 359.104 7.93884 358.176 9.95038C354.039 18.9036 362.762 40.2284 368.994 52.8268C372.845 38.851 377.46 15.4895 370.938 8.12782C369.682 6.7126 367.973 6.0113 365.748 6.0113ZM369.177 63.2905C369.276 63.3097 369.377 63.3236 369.48 63.3322C369.811 63.4598 370.165 63.5256 370.523 63.5256C370.855 63.5256 371.186 63.471 371.51 63.3534C375.76 61.8038 413.181 47.7693 417.842 31.5972C418.964 27.7085 418.174 23.8744 415.562 20.5148C411.119 14.7952 406.319 14.1149 403.073 14.5474C393.862 15.7758 384.795 27.6763 378.145 38.9817C380.497 26.1045 381.403 11.234 375.259 4.29792C373.092 1.84964 369.011 -0.775017 361.905 0.640198C357.735 1.47169 354.632 3.85698 352.935 7.5315C346.658 21.1286 361.099 50.4109 365.912 59.4856C359.843 60.657 353.739 60.9214 347.901 60.5246C335.321 59.6697 324.171 55.7579 317.514 51.4785L315.135 55.1797C322.501 59.9151 334.39 64.0165 347.602 64.9145C354.532 65.3854 361.88 64.9786 369.177 63.2905ZM404.664 20.2125C404.392 20.2125 404.114 20.2293 403.837 20.2713C394.082 21.5689 382.294 42.2596 376.062 55.3493C389.017 49.8942 409.565 39.4753 412.295 30.0014C412.908 27.8681 412.496 25.9825 411.006 24.0592C408.998 21.4765 406.92 20.2125 404.664 20.2125Z" fill="#FFD310"/>
</svg>
