<svg width="175" height="175" viewBox="0 0 175 175" fill="none" xmlns="http://www.w3.org/2000/svg">
<path d="M80.1869 117.343C77.8299 116.792 75.4726 118.256 74.922 120.614L72.6547 130.32C71.5005 135.262 69.2275 139.879 65.9712 143.77C65.0003 144.931 64.3145 146.364 64.0481 147.985C63.3423 152.283 65.9824 156.517 70.1514 157.776C75.0457 159.253 80.0926 156.282 81.2372 151.382C81.5473 150.055 81.5378 148.728 81.2586 147.481C80.1383 142.479 80.0248 137.304 81.1908 132.312L83.4577 122.607C84.0086 120.251 82.544 117.893 80.1869 117.343Z" fill="#1DB776"/>
<path d="M65.9872 53.0387C67.687 51.9826 68.2089 49.7485 67.1528 48.0486L62.8036 41.0483C60.5896 37.4848 59.2192 33.4568 58.8477 29.278C58.737 28.032 58.3002 26.7934 57.5077 25.6897C55.4081 22.7648 51.3893 21.8328 48.2161 23.5341C44.4909 25.5315 43.2771 30.2188 45.4727 33.7527C46.0673 34.7098 46.8489 35.4801 47.7405 36.0458C51.3199 38.3152 54.4115 41.2743 56.6481 44.8743L60.9965 51.8733C62.0532 53.5729 64.2873 54.0948 65.9872 53.0387Z" fill="#128E5A"/>
<path d="M105.21 116.174C103.431 117.28 102.885 119.617 103.99 121.396L108.541 128.722C110.858 132.451 112.292 136.666 112.681 141.038C112.797 142.342 113.254 143.638 114.083 144.793C116.281 147.854 120.486 148.829 123.806 147.049C127.704 144.959 128.975 140.054 126.677 136.356C126.055 135.354 125.237 134.548 124.304 133.956C120.558 131.581 117.323 128.485 114.983 124.718L110.432 117.394C109.327 115.615 106.989 115.069 105.21 116.174Z" fill="#128E5A"/>
<path d="M57.0974 80.1837C57.648 77.8267 56.1837 75.4694 53.8264 74.9187L44.1199 72.6514C39.1785 71.4972 34.5614 69.2242 30.6697 65.9679C29.5095 64.997 28.0765 64.3113 26.4547 64.0449C22.1574 63.3391 17.9233 65.9792 16.6646 70.1482C15.187 75.0425 18.1577 80.0893 23.0579 81.234C24.3853 81.544 25.7124 81.5345 26.9587 81.2553C31.961 80.1351 37.1358 80.0215 42.1277 81.1875L51.8325 83.4545C54.1895 84.0053 56.5469 82.5407 57.0974 80.1837Z" fill="#1DB776"/>
<path d="M26.9604 81.2556C31.9627 80.1353 37.1375 80.0218 42.1294 81.1878L51.8345 83.4548C54.1916 84.0054 56.5489 82.5411 57.0995 80.1838C57.6501 77.8265 56.1857 75.4695 53.8284 74.9188L44.1233 72.6518C39.1314 71.4858 33.9568 71.5994 28.9543 72.7196C27.708 72.9988 26.3808 73.0083 25.0535 72.6982C21.8966 71.9608 19.5429 69.6029 18.6611 66.7106C17.7603 67.6655 17.0642 68.8302 16.6662 70.1484C15.1886 75.0428 18.1594 80.0896 23.0596 81.2342C24.3869 81.5443 25.7141 81.5348 26.9604 81.2556Z" fill="#128E5A"/>
<path d="M112.288 59.4852C110.49 67.1853 115.274 74.8856 122.974 76.6842C130.674 78.4828 138.374 73.6988 140.173 65.9987C141.971 58.2986 137.187 50.5983 129.487 48.7997C121.787 47.001 114.087 51.7851 112.288 59.4852Z" fill="#128E5A"/>
<path d="M140.175 66.0003C140.523 64.5113 140.622 63.0227 140.504 61.5761C137.39 66.7668 131.181 69.6004 124.97 68.1496C118.759 66.6988 114.448 61.4078 113.955 55.3748C113.209 56.6192 112.638 57.9976 112.29 59.4868C110.492 67.187 115.276 74.8872 122.976 76.6858C130.676 78.4845 138.376 73.7002 140.175 66.0003Z" fill="#1DB776"/>
<path d="M41.6956 76.5875C35.8226 101.73 51.4437 126.873 76.5862 132.746C101.729 138.619 126.872 122.998 132.745 97.8553C138.617 72.7128 122.996 47.5699 97.8539 41.6969C72.7115 35.824 47.5685 51.445 41.6956 76.5875Z" fill="#1DB776"/>
<path d="M132.753 97.8544C133.09 96.4149 133.352 94.9756 133.549 93.5395C125.992 116.178 102.292 129.746 78.5888 124.209C54.886 118.673 39.6488 96.0093 42.902 72.3658C42.4431 73.7406 42.0405 75.1474 41.7043 76.5869C35.8313 101.73 51.4523 126.872 76.5949 132.745C101.737 138.618 126.88 122.997 132.753 97.8544Z" fill="#128E5A"/>
<path d="M89.5434 105.769C88.3504 110.876 91.5234 115.983 96.6305 117.176C101.738 118.369 106.845 115.196 108.038 110.089C109.231 104.982 106.058 99.8745 100.951 98.6815C95.8435 97.4886 90.7363 100.662 89.5434 105.769Z" fill="#128E5A"/>
<path d="M108.047 110.088C108.407 108.548 108.367 107.008 108 105.576C105.766 108.174 102.201 109.472 98.6342 108.639C95.0672 107.806 92.4459 105.062 91.5946 101.744C90.6304 102.865 89.9128 104.228 89.5531 105.768C88.3602 110.875 91.5332 115.982 96.6403 117.175C101.747 118.368 106.855 115.195 108.047 110.088Z" fill="white"/>
<path d="M66.9788 65.3309C66.1712 68.7882 68.3192 72.2457 71.7766 73.0532C75.2339 73.8608 78.6913 71.7128 79.4989 68.2554C80.3065 64.7981 78.1585 61.3407 74.7011 60.5331C71.2438 59.7255 67.7864 61.8736 66.9788 65.3309Z" fill="white"/>
<path d="M37.6855 108.311C36.5842 113.026 39.5135 117.741 44.2284 118.842C48.9432 119.943 53.6582 117.014 54.7595 112.299C55.8609 107.584 52.9315 102.869 48.2166 101.768C43.5018 100.667 38.7868 103.596 37.6855 108.311Z" fill="#1DB776"/>
<path d="M54.7636 112.298C55.127 110.742 55.0491 109.188 54.6158 107.762C52.5437 109.968 49.3859 111.042 46.2263 110.304C43.0668 109.566 40.7117 107.204 39.8312 104.308C38.811 105.395 38.0524 106.754 37.6891 108.31C36.5877 113.025 39.5172 117.739 44.2319 118.841C48.9467 119.942 53.6623 117.013 54.7636 112.298Z" fill="#128E5A"/>
<path d="M94.2584 57.0976C91.9014 56.5471 90.4367 54.19 90.9873 51.8327L93.2546 42.1262C94.4089 37.1848 94.4165 32.0386 93.2212 27.107C92.8647 25.6368 92.8848 24.0483 93.3644 22.4762C94.6353 18.311 98.878 15.6845 103.173 16.4029C108.216 17.2464 111.424 22.1455 110.28 27.0457C109.969 28.3731 109.373 29.5587 108.571 30.5524C105.35 34.5407 102.956 39.1298 101.79 44.1217L99.523 53.8268C98.9728 56.1836 96.6154 57.6482 94.2584 57.0976Z" fill="#128E5A"/>
<path d="M117.347 94.2583C116.796 96.6153 118.26 98.9726 120.618 99.5232L130.324 101.791C135.266 102.945 139.883 105.218 143.774 108.474C144.935 109.445 146.368 110.131 147.989 110.397C152.287 111.103 156.521 108.463 157.779 104.294C159.257 99.3995 156.286 94.3526 151.386 93.208C150.059 92.898 148.732 92.9075 147.485 93.1866C142.483 94.3069 137.308 94.4205 132.316 93.2544L122.611 90.9875C120.255 90.4367 117.897 91.9013 117.347 94.2583Z" fill="#1DB776"/>
<path d="M147.988 110.395C152.285 111.101 156.52 108.461 157.778 104.292C158.304 102.551 158.264 100.791 157.777 99.1937C155.829 101.259 152.921 102.342 149.982 101.859C148.36 101.593 146.927 100.907 145.767 99.9362C141.875 96.6798 137.258 94.4069 132.317 93.2526L122.61 90.9853C120.253 90.4348 117.896 91.8991 117.345 94.2564C116.795 96.6137 118.259 98.9707 120.616 99.5213L130.323 101.789C135.264 102.943 139.881 105.216 143.773 108.472C144.933 109.443 146.366 110.129 147.988 110.395Z" fill="#128E5A"/>
<path d="M81.2352 151.388C81.5451 150.061 81.5357 148.735 81.2566 147.489C81.2073 147.269 81.1623 147.047 81.1169 146.826C78.9255 149.182 75.5007 150.259 72.1471 149.246C69.279 148.38 67.1353 146.106 66.3071 143.371C66.1969 143.507 66.0882 143.645 65.9758 143.779C65.0054 144.939 64.3198 146.371 64.0536 147.993C63.3482 152.288 65.987 156.52 70.1542 157.778C75.0465 159.256 80.0911 156.286 81.2352 151.388Z" fill="#128E5A"/>
</svg>
