<svg width="328" height="328" viewBox="0 0 328 328" fill="none" xmlns="http://www.w3.org/2000/svg">
<path d="M212.683 143.532C214.284 147.342 218.671 149.133 222.481 147.532L238.171 140.94C246.158 137.584 254.818 136.1 263.461 136.702C266.037 136.881 268.705 136.393 271.214 135.136C277.862 131.806 281.07 123.914 278.632 116.889C275.77 108.643 266.606 104.643 258.686 107.971C256.54 108.873 254.715 110.216 253.272 111.85C247.48 118.411 240.44 123.754 232.371 127.144L216.684 133.735C212.874 135.335 211.083 139.722 212.683 143.532Z" fill="#FB4C47"/>
<path d="M138.024 227.6C134.86 226.309 131.249 227.826 129.958 230.989L124.639 244.016C121.931 250.647 117.736 256.578 112.332 261.278C110.721 262.68 109.446 264.525 108.715 266.726C106.775 272.559 109.514 279.049 115.045 281.73C121.539 284.879 129.235 281.859 131.92 275.283C132.647 273.502 132.929 271.65 132.817 269.851C132.368 262.629 133.36 255.39 136.096 248.691L141.413 235.667C142.704 232.503 141.187 228.892 138.024 227.6Z" fill="#C63F3B"/>
<path d="M185.997 110.113C189.307 111.464 193.086 109.877 194.437 106.566L200.003 92.9353C202.836 85.9959 207.226 79.7904 212.881 74.8711C214.567 73.4043 215.901 71.4738 216.666 69.1699C218.696 63.0658 215.83 56.2754 210.041 53.4695C203.246 50.1754 195.193 53.3347 192.383 60.2158C191.622 62.0798 191.328 64.0178 191.444 65.9007C191.915 73.4581 190.876 81.0327 188.014 88.043L182.45 101.672C181.099 104.982 182.686 108.761 185.997 110.113Z" fill="#C63F3B"/>
<path d="M184.456 212.682C180.646 214.283 178.855 218.669 180.456 222.479L187.048 238.169C190.404 246.156 191.888 254.816 191.287 263.459C191.107 266.036 191.595 268.704 192.852 271.213C196.182 277.86 204.075 281.068 211.099 278.63C219.345 275.768 223.345 266.605 220.017 258.684C219.116 256.538 217.773 254.713 216.138 253.27C209.577 247.478 204.234 240.438 200.844 232.369L194.253 216.682C192.653 212.872 188.266 211.081 184.456 212.682Z" fill="#FB4C47"/>
<path d="M216.135 253.271C209.574 247.479 204.232 240.439 200.842 232.37L194.25 216.682C192.65 212.873 188.263 211.081 184.453 212.682C180.643 214.283 178.852 218.669 180.453 222.48L187.044 238.167C190.434 246.236 195.776 253.275 202.338 259.068C203.972 260.511 205.315 262.336 206.217 264.482C208.361 269.585 207.46 275.201 204.345 279.318C206.568 279.607 208.876 279.402 211.097 278.631C219.343 275.769 223.343 266.605 220.015 258.685C219.113 256.539 217.77 254.714 216.135 253.271Z" fill="#C63F3B"/>
<path d="M100.538 157.132C112.984 151.902 118.835 137.573 113.605 125.127C108.376 112.68 94.0467 106.83 81.6002 112.059C69.1538 117.289 63.3033 131.618 68.5327 144.064C73.7621 156.511 88.0913 162.361 100.538 157.132Z" fill="#FF8F8C"/>
<path d="M81.6055 112.059C79.1987 113.07 77.0418 114.425 75.1603 116.037C85.4557 115.14 95.5945 120.884 99.8126 130.923C104.031 140.963 101.037 152.224 93.1902 158.95C95.6585 158.735 98.1357 158.143 100.543 157.131C112.989 151.902 118.84 137.573 113.61 125.126C108.381 112.68 94.0516 106.829 81.6055 112.059Z" fill="#FB4C47"/>
<path d="M194.914 237.577C235.555 220.501 254.658 173.713 237.583 133.073C220.507 92.4322 173.719 73.3287 133.079 90.4041C92.4379 107.479 73.3345 154.268 90.4099 194.908C107.485 235.549 154.273 254.652 194.914 237.577Z" fill="#FB4C47"/>
<path d="M133.079 90.4034C130.752 91.3811 128.5 92.4604 126.317 93.6266C165.183 81.3893 207.688 100.556 223.786 138.869C239.883 177.183 223.823 220.955 187.88 240.15C190.24 239.407 192.588 238.554 194.915 237.576C235.556 220.501 254.659 173.713 237.584 133.072C220.508 92.4311 173.72 73.328 133.079 90.4034Z" fill="#C63F3B"/>
<path d="M187.305 142.189C195.56 138.721 199.44 129.217 195.972 120.962C192.503 112.707 182.999 108.826 174.744 112.295C166.489 115.763 162.609 125.267 166.077 133.522C169.545 141.777 179.049 145.658 187.305 142.189Z" fill="#C63F3B"/>
<path d="M174.743 112.295C172.254 113.341 170.166 114.938 168.553 116.882C174.383 117.366 179.75 120.994 182.173 126.759C184.595 132.525 183.429 138.898 179.695 143.4C182.212 143.609 184.814 143.235 187.303 142.19C195.558 138.721 199.439 129.217 195.97 120.962C192.502 112.707 182.998 108.827 174.743 112.295Z" fill="white"/>
<path d="M154.023 213.907C159.611 211.559 162.238 205.125 159.89 199.537C157.542 193.949 151.108 191.322 145.52 193.67C139.932 196.018 137.305 202.452 139.653 208.04C142.001 213.628 148.435 216.255 154.023 213.907Z" fill="white"/>
<path d="M242.786 211.33C250.406 208.128 253.988 199.355 250.787 191.735C247.585 184.115 238.812 180.533 231.192 183.735C223.572 186.936 219.99 195.709 223.191 203.329C226.393 210.95 235.166 214.531 242.786 211.33Z" fill="#FB4C47"/>
<path d="M231.191 183.735C228.677 184.791 226.606 186.457 225.07 188.484C230.195 189.138 234.843 192.427 236.988 197.533C239.134 202.64 238.23 208.261 235.109 212.379C237.633 212.701 240.272 212.387 242.786 211.331C250.406 208.129 253.988 199.356 250.786 191.736C247.585 184.116 238.812 180.533 231.191 183.735Z" fill="#C63F3B"/>
<path d="M115.3 184.448C116.901 188.258 115.11 192.645 111.3 194.246L95.6101 200.838C87.6228 204.194 80.5012 209.34 74.8819 215.934C73.2066 217.9 70.9906 219.464 68.3369 220.376C61.3056 222.793 53.4236 219.56 50.1128 212.903C46.226 205.087 49.7831 195.743 57.7039 192.415C59.8495 191.513 62.0861 191.15 64.2637 191.263C73.0039 191.718 81.7468 190.43 89.8157 187.04L105.503 180.448C109.313 178.847 113.699 180.638 115.3 184.448Z" fill="#C63F3B"/>
<path d="M143.544 115.297C147.354 113.697 149.145 109.31 147.544 105.5L140.952 89.8102C137.596 81.8229 136.112 73.1629 136.713 64.5202C136.893 61.9435 136.405 59.2755 135.148 56.7665C131.818 50.119 123.925 46.9113 116.901 49.3489C108.655 52.2107 104.655 61.3744 107.983 69.2952C108.884 71.4408 110.227 73.2659 111.862 74.7089C118.423 80.5012 123.766 87.5409 127.156 95.6099L133.747 111.297C135.347 115.107 139.734 116.898 143.544 115.297Z" fill="#FB4C47"/>
<path d="M135.149 56.7664C131.819 50.1188 123.926 46.9112 116.902 49.3488C113.968 50.3667 111.576 52.1849 109.855 54.4588C114.663 55.0824 119.074 58.018 121.351 62.5636C122.608 65.0725 123.096 67.7406 122.917 70.3173C122.315 78.9599 123.799 87.62 127.155 95.6073L133.747 111.297C135.348 115.107 139.734 116.898 143.545 115.297C147.355 113.696 149.146 109.31 147.545 105.5L140.953 89.8101C137.597 81.8228 136.112 73.1627 136.714 64.5201C136.894 61.9434 136.406 59.2751 135.149 56.7664Z" fill="#C63F3B"/>
<path d="M260.247 108.36C258.086 109.221 256.238 110.53 254.766 112.137C254.505 112.421 254.239 112.7 253.974 112.98C259.412 113.749 264.264 117.493 266.121 123.177C267.708 128.039 266.616 133.262 263.595 137.092C263.894 137.113 264.192 137.131 264.491 137.157C267.062 137.384 269.737 136.945 272.267 135.735C278.971 132.529 282.321 124.702 280.014 117.638C277.306 109.345 268.222 105.18 260.247 108.36Z" fill="#C63F3B"/>
</svg>
