<svg width="197" height="198" viewBox="0 0 197 198" fill="none" xmlns="http://www.w3.org/2000/svg">
<g opacity="0.63">
<path d="M126.41 92.2726C127.625 93.9892 130.003 94.3954 131.719 93.1795L138.789 88.1726C142.388 85.6237 146.527 83.9306 150.889 83.2761C152.189 83.081 153.461 82.5441 154.569 81.6427C157.505 79.2543 158.228 74.9785 156.242 71.7569C153.91 67.9748 148.915 66.9983 145.346 69.5259C144.379 70.2106 143.62 71.0794 143.084 72.0509C140.929 75.9504 138.02 79.3819 134.385 81.9568L127.317 86.9628C125.6 88.1784 125.194 90.5559 126.41 92.2726Z" fill="#FFC700"/>
<path d="M92.7168 133.102C91.0025 132.809 89.3754 133.962 89.0826 135.676L87.8768 142.736C87.263 146.33 85.8328 149.74 83.666 152.672C83.0198 153.546 82.5901 154.604 82.4694 155.778C82.1492 158.891 84.226 161.813 87.2706 162.536C90.8448 163.383 94.3358 161.034 94.9445 157.47C95.1094 156.505 95.045 155.553 94.7911 154.672C93.7709 151.132 93.4655 147.426 94.0856 143.795L95.2912 136.737C95.5835 135.022 94.4311 133.395 92.7168 133.102Z" fill="#D09700"/>
<path d="M103.596 69.4271C105.39 69.7335 107.092 68.5277 107.399 66.7337L108.66 59.3461C109.303 55.5852 110.799 52.0172 113.067 48.9489C113.743 48.034 114.193 46.9276 114.319 45.6983C114.654 42.4412 112.48 39.383 109.295 38.6274C105.554 37.7402 101.901 40.1986 101.264 43.9279C101.092 44.9381 101.159 45.9336 101.425 46.8564C102.492 50.5599 102.812 54.4384 102.163 58.2377L100.902 65.6241C100.596 67.4181 101.802 69.1207 103.596 69.4271Z" fill="#D09700"/>
<path d="M114.141 120.568C112.424 121.784 112.018 124.161 113.234 125.878L118.241 132.948C120.79 136.547 122.483 140.686 123.137 145.047C123.332 146.348 123.869 147.62 124.771 148.728C127.159 151.664 131.435 152.387 134.657 150.4C138.439 148.069 139.415 143.074 136.888 139.505C136.203 138.538 135.334 137.779 134.363 137.242C130.463 135.088 127.032 132.179 124.457 128.544L119.451 121.475C118.235 119.759 115.858 119.353 114.141 120.568Z" fill="#FFC700"/>
<path d="M134.362 137.241C130.463 135.086 127.031 132.177 124.456 128.542L119.45 121.473C118.234 119.757 115.857 119.351 114.14 120.567C112.423 121.782 112.017 124.16 113.233 125.877L118.239 132.945C120.814 136.581 124.246 139.489 128.145 141.644C129.117 142.181 129.986 142.939 130.67 143.906C132.299 146.205 132.471 149.096 131.377 151.485C132.513 151.383 133.638 151.027 134.656 150.399C138.438 148.067 139.415 143.072 136.887 139.503C136.202 138.536 135.334 137.777 134.362 137.241Z" fill="#D09700"/>
<path d="M66.3163 102.221C71.9242 98.2496 73.2505 90.4838 69.2787 84.8759C65.307 79.268 57.5411 77.9417 51.9333 81.9135C46.3254 85.8852 44.999 93.6511 48.9708 99.2589C52.9426 104.867 60.7084 106.193 66.3163 102.221Z" fill="#D09700"/>
<path d="M51.9338 81.9132C50.8494 82.6813 49.9271 83.5924 49.1701 84.6013C54.1871 83.0198 59.8589 84.7554 63.0625 89.2787C66.2661 93.802 66.0208 99.7283 62.8638 103.936C64.0666 103.557 65.2323 102.989 66.3169 102.221C71.9248 98.2494 73.2511 90.4836 69.2793 84.8757C65.3075 79.2678 57.5416 77.9416 51.9338 81.9132Z" fill="#FFC700"/>
<path d="M122.083 131.786C140.395 118.817 144.726 93.4588 131.757 75.1474C118.788 56.836 93.43 52.5051 75.1186 65.4741C56.8072 78.4431 52.4763 103.801 65.4453 122.112C78.4143 140.424 103.772 144.755 122.083 131.786Z" fill="#FFC700"/>
<path d="M75.125 65.4735C74.0766 66.2161 73.0763 67.0009 72.1202 67.8213C90.0838 57.4522 113.32 62.2868 125.547 79.5497C137.773 96.8126 134.622 120.336 118.878 133.84C119.969 133.21 121.042 132.527 122.09 131.785C140.402 118.816 144.732 93.4582 131.763 75.1467C118.794 56.8352 93.4365 52.5045 75.125 65.4735Z" fill="#D09700"/>
<path d="M103.206 88.0072C104.561 87.0481 104.881 85.1728 103.922 83.8186C102.963 82.4644 101.087 82.1441 99.7332 83.1032C98.379 84.0623 98.0588 85.9376 99.0179 87.2918C99.977 88.646 101.852 88.9663 103.206 88.0072Z" fill="white"/>
<path d="M99.1499 124.535C101.668 122.751 102.264 119.264 100.48 116.746C98.6967 114.228 95.2095 113.632 92.6914 115.416C90.1732 117.199 89.5776 120.686 91.3611 123.205C93.1446 125.723 96.6318 126.318 99.1499 124.535Z" fill="white"/>
<path d="M81.5142 101.095C85.3694 98.3641 86.2812 93.0253 83.5507 89.1701C80.8203 85.3148 75.4815 84.403 71.6263 87.1335C67.771 89.8639 66.8592 95.2027 69.5897 99.0579C72.3201 102.913 77.6589 103.825 81.5142 101.095Z" fill="white"/>
<path d="M142.974 113.461C146.407 111.029 147.219 106.274 144.787 102.841C142.356 99.4073 137.601 98.5953 134.167 101.027C130.734 103.459 129.922 108.214 132.354 111.647C134.785 115.081 139.54 115.893 142.974 113.461Z" fill="#FFC700"/>
<path d="M134.169 101.027C133.036 101.83 132.191 102.886 131.651 104.063C134.27 103.822 136.943 104.944 138.572 107.245C140.202 109.545 140.373 112.439 139.276 114.829C140.566 114.711 141.843 114.264 142.975 113.462C146.409 111.03 147.221 106.275 144.789 102.842C142.358 99.4081 137.603 98.5955 134.169 101.027Z" fill="#D09700"/>
<path d="M76.6649 114.167C77.8807 115.884 77.4748 118.261 75.758 119.477L68.6886 124.484C65.0898 127.033 62.1186 130.376 60.0537 134.273C59.4382 135.435 58.5095 136.456 57.2915 137.202C54.0641 139.179 49.7906 138.442 47.4108 135.499C44.6171 132.044 45.3538 127.008 48.9226 124.481C49.8894 123.796 50.9607 123.369 52.0553 123.185C56.4488 122.447 60.6512 120.842 64.2869 118.267L71.3552 113.261C73.0715 112.045 75.449 112.451 76.6649 114.167Z" fill="#D09700"/>
<path d="M83.0664 76.6913C84.7831 75.4755 85.1893 73.0981 83.9733 71.3813L78.9665 64.3119C76.4176 60.7131 74.7245 56.5735 74.0699 52.2123C73.8749 50.912 73.338 49.6401 72.4366 48.532C70.0482 45.596 65.7724 44.8728 62.5508 46.8591C58.7687 49.191 57.7922 54.186 60.3198 57.7549C61.0045 58.7217 61.8732 59.4804 62.8448 60.0172C66.7443 62.1716 70.1757 65.0804 72.7507 68.7161L77.7568 75.7844C78.9723 77.501 81.3498 77.9071 83.0664 76.6913Z" fill="#FFC700"/>
<path d="M72.4344 48.5323C70.046 45.5964 65.7702 44.8732 62.5486 46.8595C61.2029 47.689 60.2147 48.8565 59.6108 50.1762C62.0686 49.9557 64.5842 50.9279 66.2175 52.9354C67.1189 54.0435 67.6558 55.3155 67.8509 56.6157C68.5054 60.9769 70.1985 65.1165 72.7474 68.7154L77.7542 75.7847C78.9701 77.5014 81.3474 77.9076 83.0642 76.6916C84.7811 75.4757 85.1871 73.0985 83.9711 71.3817L78.9643 64.3123C76.4154 60.7135 74.7222 56.5738 74.0677 52.2127C73.8727 50.9124 73.336 49.6403 72.4344 48.5323Z" fill="#D09700"/>
</g>
</svg>
